<mxfile host="app.diagrams.net" agent="Mozilla/5.0 (Windows NT 10.0; Win64; x64) AppleWebKit/537.36 (KHTML, like Gecko) Chrome/131.0.0.0 Safari/537.36 Edg/131.0.0.0" version="25.0.1">
  <diagram name="Page-1" id="WpQWqwLGqnZRCDRyW1KJ">
    <mxGraphModel dx="1684" dy="1552" grid="1" gridSize="10" guides="1" tooltips="1" connect="1" arrows="1" fold="1" page="1" pageScale="1" pageWidth="850" pageHeight="1100" math="0" shadow="0">
      <root>
        <mxCell id="0" />
        <mxCell id="1" parent="0" />
        <mxCell id="gyq8WIJsPYIdBO1_Q_WW-1" value="" style="edgeStyle=orthogonalEdgeStyle;rounded=0;orthogonalLoop=1;jettySize=auto;html=1;" edge="1" parent="1" source="gyq8WIJsPYIdBO1_Q_WW-2">
          <mxGeometry relative="1" as="geometry">
            <mxPoint x="-589.9714285714286" y="-960" as="targetPoint" />
          </mxGeometry>
        </mxCell>
        <mxCell id="gyq8WIJsPYIdBO1_Q_WW-2" value="&lt;font data-font-src=&quot;https://fonts.googleapis.com/css?family=Sarabun&quot; face=&quot;Sarabun&quot;&gt;Start&lt;/font&gt;" style="ellipse;whiteSpace=wrap;html=1;" vertex="1" parent="1">
          <mxGeometry x="-655.0000000000001" y="-1020" width="130" height="30" as="geometry" />
        </mxCell>
        <mxCell id="gyq8WIJsPYIdBO1_Q_WW-3" value="" style="edgeStyle=orthogonalEdgeStyle;rounded=0;orthogonalLoop=1;jettySize=auto;html=1;" edge="1" parent="1" source="gyq8WIJsPYIdBO1_Q_WW-4" target="gyq8WIJsPYIdBO1_Q_WW-6">
          <mxGeometry relative="1" as="geometry" />
        </mxCell>
        <mxCell id="gyq8WIJsPYIdBO1_Q_WW-4" value="กำหนดตัวแปร name2" style="rounded=0;whiteSpace=wrap;html=1;" vertex="1" parent="1">
          <mxGeometry x="-670" y="-890" width="160" height="40" as="geometry" />
        </mxCell>
        <mxCell id="gyq8WIJsPYIdBO1_Q_WW-5" value="" style="edgeStyle=orthogonalEdgeStyle;rounded=0;orthogonalLoop=1;jettySize=auto;html=1;" edge="1" parent="1" source="gyq8WIJsPYIdBO1_Q_WW-6" target="gyq8WIJsPYIdBO1_Q_WW-8">
          <mxGeometry relative="1" as="geometry" />
        </mxCell>
        <mxCell id="gyq8WIJsPYIdBO1_Q_WW-6" value="กำหนดตัวแปร AGe1" style="rounded=0;whiteSpace=wrap;html=1;" vertex="1" parent="1">
          <mxGeometry x="-670" y="-820" width="160" height="40" as="geometry" />
        </mxCell>
        <mxCell id="gyq8WIJsPYIdBO1_Q_WW-7" style="edgeStyle=orthogonalEdgeStyle;rounded=0;orthogonalLoop=1;jettySize=auto;html=1;entryX=0.5;entryY=0;entryDx=0;entryDy=0;" edge="1" parent="1" source="gyq8WIJsPYIdBO1_Q_WW-8" target="gyq8WIJsPYIdBO1_Q_WW-10">
          <mxGeometry relative="1" as="geometry" />
        </mxCell>
        <mxCell id="gyq8WIJsPYIdBO1_Q_WW-8" value="กำหนดตัวแปร&amp;nbsp;&lt;span style=&quot;color: rgba(0, 0, 0, 0); font-family: monospace; font-size: 0px; text-align: start; text-wrap-mode: nowrap;&quot;&gt;%3CmxGraphModel%3E%3Croot%3E%3CmxCell%20id%3D%220%22%2F%3E%3CmxCell%20id%3D%221%22%20parent%3D%220%22%2F%3E%3CmxCell%20id%3D%222%22%20value%3D%22%22%20style%3D%22edgeStyle%3DorthogonalEdgeStyle%3Brounded%3D0%3BorthogonalLoop%3D1%3BjettySize%3Dauto%3Bhtml%3D1%3B%22%20edge%3D%221%22%20source%3D%223%22%20parent%3D%221%22%3E%3CmxGeometry%20relative%3D%221%22%20as%3D%22geometry%22%3E%3CmxPoint%20x%3D%22-679.9714285714286%22%20y%3D%22-950%22%20as%3D%22targetPoint%22%2F%3E%3C%2FmxGeometry%3E%3C%2FmxCell%3E%3CmxCell%20id%3D%223%22%20value%3D%22%26lt%3Bfont%20data-font-src%3D%26quot%3Bhttps%3A%2F%2Ffonts.googleapis.com%2Fcss%3Ffamily%3DSarabun%26quot%3B%20face%3D%26quot%3BSarabun%26quot%3B%26gt%3BStart%26lt%3B%2Ffont%26gt%3B%22%20style%3D%22ellipse%3BwhiteSpace%3Dwrap%3Bhtml%3D1%3B%22%20vertex%3D%221%22%20parent%3D%221%22%3E%3CmxGeometry%20x%3D%22-745.0000000000001%22%20y%3D%22-1010%22%20width%3D%22130%22%20height%3D%2230%22%20as%3D%22geometry%22%2F%3E%3C%2FmxCell%3E%3CmxCell%20id%3D%224%22%20value%3D%22%22%20style%3D%22edgeStyle%3DorthogonalEdgeStyle%3Brounded%3D0%3BorthogonalLoop%3D1%3BjettySize%3Dauto%3Bhtml%3D1%3B%22%20edge%3D%221%22%20source%3D%225%22%20target%3D%227%22%20parent%3D%221%22%3E%3CmxGeometry%20relative%3D%221%22%20as%3D%22geometry%22%2F%3E%3C%2FmxCell%3E%3CmxCell%20id%3D%225%22%20value%3D%22%E0%B8%81%E0%B8%B3%E0%B8%AB%E0%B8%99%E0%B8%94%E0%B8%95%E0%B8%B1%E0%B8%A7%E0%B9%81%E0%B8%9B%E0%B8%A3%20num%201%22%20style%3D%22rounded%3D0%3BwhiteSpace%3Dwrap%3Bhtml%3D1%3B%22%20vertex%3D%221%22%20parent%3D%221%22%3E%3CmxGeometry%20x%3D%22-760%22%20y%3D%22-880%22%20width%3D%22160%22%20height%3D%2240%22%20as%3D%22geometry%22%2F%3E%3C%2FmxCell%3E%3CmxCell%20id%3D%226%22%20value%3D%22%22%20style%3D%22edgeStyle%3DorthogonalEdgeStyle%3Brounded%3D0%3BorthogonalLoop%3D1%3BjettySize%3Dauto%3Bhtml%3D1%3B%22%20edge%3D%221%22%20source%3D%227%22%20target%3D%229%22%20parent%3D%221%22%3E%3CmxGeometry%20relative%3D%221%22%20as%3D%22geometry%22%2F%3E%3C%2FmxCell%3E%3CmxCell%20id%3D%227%22%20value%3D%22%E0%B8%81%E0%B8%B3%E0%B8%AB%E0%B8%99%E0%B8%94%E0%B8%95%E0%B8%B1%E0%B8%A7%E0%B9%81%E0%B8%9B%E0%B8%A3%20num%202%22%20style%3D%22rounded%3D0%3BwhiteSpace%3Dwrap%3Bhtml%3D1%3B%22%20vertex%3D%221%22%20parent%3D%221%22%3E%3CmxGeometry%20x%3D%22-760%22%20y%3D%22-810%22%20width%3D%22160%22%20height%3D%2240%22%20as%3D%22geometry%22%2F%3E%3C%2FmxCell%3E%3CmxCell%20id%3D%228%22%20style%3D%22edgeStyle%3DorthogonalEdgeStyle%3Brounded%3D0%3BorthogonalLoop%3D1%3BjettySize%3Dauto%3Bhtml%3D1%3BentryX%3D0.5%3BentryY%3D0%3BentryDx%3D0%3BentryDy%3D0%3B%22%20edge%3D%221%22%20source%3D%229%22%20target%3D%2211%22%20parent%3D%221%22%3E%3CmxGeometry%20relative%3D%221%22%20as%3D%22geometry%22%2F%3E%3C%2FmxCell%3E%3CmxCell%20id%3D%229%22%20value%3D%22%E0%B8%81%E0%B8%B3%E0%B8%AB%E0%B8%99%E0%B8%94%E0%B8%95%E0%B8%B1%E0%B8%A7%E0%B9%81%E0%B8%9B%E0%B8%A3%20num%203%22%20style%3D%22rounded%3D0%3BwhiteSpace%3Dwrap%3Bhtml%3D1%3B%22%20vertex%3D%221%22%20parent%3D%221%22%3E%3CmxGeometry%20x%3D%22-760%22%20y%3D%22-740%22%20width%3D%22160%22%20height%3D%2240%22%20as%3D%22geometry%22%2F%3E%3C%2FmxCell%3E%3CmxCell%20id%3D%2210%22%20value%3D%22%22%20style%3D%22edgeStyle%3DorthogonalEdgeStyle%3Brounded%3D0%3BorthogonalLoop%3D1%3BjettySize%3Dauto%3Bhtml%3D1%3B%22%20edge%3D%221%22%20source%3D%2211%22%20target%3D%2213%22%20parent%3D%221%22%3E%3CmxGeometry%20relative%3D%221%22%20as%3D%22geometry%22%2F%3E%3C%2FmxCell%3E%3CmxCell%20id%3D%2211%22%20value%3D%22%E0%B8%81%E0%B8%A3%E0%B8%AD%E0%B8%81%E0%B8%84%E0%B9%88%E0%B8%B2%E0%B8%95%E0%B8%B1%E0%B8%A7%E0%B9%81%E0%B8%9B%E0%B8%A3%20num%201%22%20style%3D%22rounded%3D0%3BwhiteSpace%3Dwrap%3Bhtml%3D1%3B%22%20vertex%3D%221%22%20parent%3D%221%22%3E%3CmxGeometry%20x%3D%22-760%22%20y%3D%22-670%22%20width%3D%22160%22%20height%3D%2240%22%20as%3D%22geometry%22%2F%3E%3C%2FmxCell%3E%3CmxCell%20id%3D%2212%22%20value%3D%22%22%20style%3D%22edgeStyle%3DorthogonalEdgeStyle%3Brounded%3D0%3BorthogonalLoop%3D1%3BjettySize%3Dauto%3Bhtml%3D1%3B%22%20edge%3D%221%22%20source%3D%2213%22%20target%3D%2215%22%20parent%3D%221%22%3E%3CmxGeometry%20relative%3D%221%22%20as%3D%22geometry%22%2F%3E%3C%2FmxCell%3E%3CmxCell%20id%3D%2213%22%20value%3D%22%E0%B8%81%E0%B8%A3%E0%B8%AD%E0%B8%81%E0%B8%84%E0%B9%88%E0%B8%B2%E0%B8%95%E0%B8%B1%E0%B8%A7%E0%B9%81%E0%B8%9B%E0%B8%A3%20num%202%22%20style%3D%22rounded%3D0%3BwhiteSpace%3Dwrap%3Bhtml%3D1%3B%22%20vertex%3D%221%22%20parent%3D%221%22%3E%3CmxGeometry%20x%3D%22-760%22%20y%3D%22-600%22%20width%3D%22160%22%20height%3D%2240%22%20as%3D%22geometry%22%2F%3E%3C%2FmxCell%3E%3CmxCell%20id%3D%2214%22%20value%3D%22%22%20style%3D%22edgeStyle%3DorthogonalEdgeStyle%3Brounded%3D0%3BorthogonalLoop%3D1%3BjettySize%3Dauto%3Bhtml%3D1%3B%22%20edge%3D%221%22%20source%3D%2215%22%20target%3D%2229%22%20parent%3D%221%22%3E%3CmxGeometry%20relative%3D%221%22%20as%3D%22geometry%22%2F%3E%3C%2FmxCell%3E%3CmxCell%20id%3D%2215%22%20value%3D%22%E0%B8%81%E0%B8%A3%E0%B8%AD%E0%B8%81%E0%B8%84%E0%B9%88%E0%B8%B2%E0%B8%95%E0%B8%B1%E0%B8%A7%E0%B9%81%E0%B8%9B%E0%B8%A3%20num%203%22%20style%3D%22rounded%3D0%3BwhiteSpace%3Dwrap%3Bhtml%3D1%3B%22%20vertex%3D%221%22%20parent%3D%221%22%3E%3CmxGeometry%20x%3D%22-760%22%20y%3D%22-530%22%20width%3D%22160%22%20height%3D%2240%22%20as%3D%22geometry%22%2F%3E%3C%2FmxCell%3E%3CmxCell%20id%3D%2216%22%20value%3D%22%22%20style%3D%22edgeStyle%3DorthogonalEdgeStyle%3Brounded%3D0%3BorthogonalLoop%3D1%3BjettySize%3Dauto%3Bhtml%3D1%3B%22%20edge%3D%221%22%20source%3D%2217%22%20target%3D%2219%22%20parent%3D%221%22%3E%3CmxGeometry%20relative%3D%221%22%20as%3D%22geometry%22%2F%3E%3C%2FmxCell%3E%3CmxCell%20id%3D%2217%22%20value%3D%22Start%20cal%22%20style%3D%22shape%3Dprocess%3BwhiteSpace%3Dwrap%3Bhtml%3D1%3BbackgroundOutline%3D1%3B%22%20vertex%3D%221%22%20parent%3D%221%22%3E%3CmxGeometry%20x%3D%22-210%22%20y%3D%22-940%22%20width%3D%22120%22%20height%3D%2250%22%20as%3D%22geometry%22%2F%3E%3C%2FmxCell%3E%3CmxCell%20id%3D%2218%22%20value%3D%22%22%20style%3D%22edgeStyle%3DorthogonalEdgeStyle%3Brounded%3D0%3BorthogonalLoop%3D1%3BjettySize%3Dauto%3Bhtml%3D1%3B%22%20edge%3D%221%22%20source%3D%2219%22%20target%3D%2221%22%20parent%3D%221%22%3E%3CmxGeometry%20relative%3D%221%22%20as%3D%22geometry%22%2F%3E%3C%2FmxCell%3E%3CmxCell%20id%3D%2219%22%20value%3D%22sum%20%3D%20num1%20%2B%20num2%20%2Bnum3%22%20style%3D%22rounded%3D0%3BwhiteSpace%3Dwrap%3Bhtml%3D1%3B%22%20vertex%3D%221%22%20parent%3D%221%22%3E%3CmxGeometry%20x%3D%22-230%22%20y%3D%22-850%22%20width%3D%22160%22%20height%3D%2240%22%20as%3D%22geometry%22%2F%3E%3C%2FmxCell%3E%3CmxCell%20id%3D%2220%22%20value%3D%22%22%20style%3D%22edgeStyle%3DorthogonalEdgeStyle%3Brounded%3D0%3BorthogonalLoop%3D1%3BjettySize%3Dauto%3Bhtml%3D1%3B%22%20edge%3D%221%22%20source%3D%2221%22%20target%3D%2224%22%20parent%3D%221%22%3E%3CmxGeometry%20relative%3D%221%22%20as%3D%22geometry%22%2F%3E%3C%2FmxCell%3E%3CmxCell%20id%3D%2221%22%20value%3D%22%26lt%3Bfont%20face%3D%26quot%3BConsolas%2C%20Courier%20New%2C%20monospace%26quot%3B%26gt%3B%26lt%3Bspan%20style%3D%26quot%3Bfont-size%3A%2014px%3B%20white-space%3A%20pre%3B%26quot%3B%26gt%3Breturn%20sum%20%26lt%3B%2Fspan%26gt%3B%26lt%3B%2Ffont%26gt%3B%22%20style%3D%22rounded%3D0%3BwhiteSpace%3Dwrap%3Bhtml%3D1%3B%22%20vertex%3D%221%22%20parent%3D%221%22%3E%3CmxGeometry%20x%3D%22-230%22%20y%3D%22-780%22%20width%3D%22160%22%20height%3D%2240%22%20as%3D%22geometry%22%2F%3E%3C%2FmxCell%3E%3CmxCell%20id%3D%2222%22%20style%3D%22edgeStyle%3DorthogonalEdgeStyle%3Brounded%3D0%3BorthogonalLoop%3D1%3BjettySize%3Dauto%3Bhtml%3D1%3BentryX%3D0.5%3BentryY%3D0%3BentryDx%3D0%3BentryDy%3D0%3B%22%20edge%3D%221%22%20source%3D%2223%22%20target%3D%225%22%20parent%3D%221%22%3E%3CmxGeometry%20relative%3D%221%22%20as%3D%22geometry%22%2F%3E%3C%2FmxCell%3E%3CmxCell%20id%3D%2223%22%20value%3D%22%E0%B8%81%E0%B8%B3%E0%B8%AB%E0%B8%99%E0%B8%94%E0%B8%95%E0%B8%B1%E0%B8%A7%E0%B9%81%E0%B8%9B%E0%B8%A3%20Sum%22%20style%3D%22rounded%3D0%3BwhiteSpace%3Dwrap%3Bhtml%3D1%3B%22%20vertex%3D%221%22%20parent%3D%221%22%3E%3CmxGeometry%20x%3D%22-760%22%20y%3D%22-950%22%20width%3D%22160%22%20height%3D%2240%22%20as%3D%22geometry%22%2F%3E%3C%2FmxCell%3E%3CmxCell%20id%3D%2224%22%20value%3D%22End%20cal%22%20style%3D%22shape%3Dprocess%3BwhiteSpace%3Dwrap%3Bhtml%3D1%3BbackgroundOutline%3D1%3B%22%20vertex%3D%221%22%20parent%3D%221%22%3E%3CmxGeometry%20x%3D%22-210%22%20y%3D%22-700%22%20width%3D%22120%22%20height%3D%2250%22%20as%3D%22geometry%22%2F%3E%3C%2FmxCell%3E%3CmxCell%20id%3D%2225%22%20value%3D%22%22%20style%3D%22edgeStyle%3DorthogonalEdgeStyle%3Brounded%3D0%3BorthogonalLoop%3D1%3BjettySize%3Dauto%3Bhtml%3D1%3B%22%20edge%3D%221%22%20source%3D%2226%22%20target%3D%2227%22%20parent%3D%221%22%3E%3CmxGeometry%20relative%3D%221%22%20as%3D%22geometry%22%2F%3E%3C%2FmxCell%3E%3CmxCell%20id%3D%2226%22%20value%3D%22%E0%B8%9B%E0%B8%A3%E0%B8%B4%E0%B9%89%E0%B8%99%20Sum%22%20style%3D%22rounded%3D0%3BwhiteSpace%3Dwrap%3Bhtml%3D1%3Bshape%3Dparallelogram%3Bperimeter%3DparallelogramPerimeter%3BfixedSize%3D1%3B%22%20vertex%3D%221%22%20parent%3D%221%22%3E%3CmxGeometry%20x%3D%22-760%22%20y%3D%22-357%22%20width%3D%22160%22%20height%3D%2240%22%20as%3D%22geometry%22%2F%3E%3C%2FmxCell%3E%3CmxCell%20id%3D%2227%22%20value%3D%22%26lt%3Bfont%20data-font-src%3D%26quot%3Bhttps%3A%2F%2Ffonts.googleapis.com%2Fcss%3Ffamily%3DSarabun%26quot%3B%20face%3D%26quot%3BSarabun%26quot%3B%26gt%3BEnd%26lt%3B%2Ffont%26gt%3B%22%20style%3D%22ellipse%3BwhiteSpace%3Dwrap%3Bhtml%3D1%3B%22%20vertex%3D%221%22%20parent%3D%221%22%3E%3CmxGeometry%20x%3D%22-745.0000000000001%22%20y%3D%22-277%22%20width%3D%22130%22%20height%3D%2230%22%20as%3D%22geometry%22%2F%3E%3C%2FmxCell%3E%3CmxCell%20id%3D%2228%22%20value%3D%22%22%20style%3D%22edgeStyle%3DorthogonalEdgeStyle%3Brounded%3D0%3BorthogonalLoop%3D1%3BjettySize%3Dauto%3Bhtml%3D1%3B%22%20edge%3D%221%22%20source%3D%2229%22%20target%3D%2226%22%20parent%3D%221%22%3E%3CmxGeometry%20relative%3D%221%22%20as%3D%22geometry%22%2F%3E%3C%2FmxCell%3E%3CmxCell%20id%3D%2229%22%20value%3D%22cal%22%20style%3D%22shape%3Dprocess%3BwhiteSpace%3Dwrap%3Bhtml%3D1%3BbackgroundOutline%3D1%3B%22%20vertex%3D%221%22%20parent%3D%221%22%3E%3CmxGeometry%20x%3D%22-740%22%20y%3D%22-450%22%20width%3D%22120%22%20height%3D%2250%22%20as%3D%22geometry%22%2F%3E%3C%2FmxCell%3E%3C%2Froot%3E%3C%2FmxGraphModel%3E&amp;nbsp;&lt;/span&gt;AGe2" style="rounded=0;whiteSpace=wrap;html=1;" vertex="1" parent="1">
          <mxGeometry x="-670" y="-750" width="160" height="40" as="geometry" />
        </mxCell>
        <mxCell id="gyq8WIJsPYIdBO1_Q_WW-9" value="" style="edgeStyle=orthogonalEdgeStyle;rounded=0;orthogonalLoop=1;jettySize=auto;html=1;" edge="1" parent="1" source="gyq8WIJsPYIdBO1_Q_WW-10" target="gyq8WIJsPYIdBO1_Q_WW-12">
          <mxGeometry relative="1" as="geometry" />
        </mxCell>
        <mxCell id="gyq8WIJsPYIdBO1_Q_WW-10" value="กรอกค่าตัวแปร Swap" style="rounded=0;whiteSpace=wrap;html=1;" vertex="1" parent="1">
          <mxGeometry x="-670" y="-680" width="160" height="40" as="geometry" />
        </mxCell>
        <mxCell id="gyq8WIJsPYIdBO1_Q_WW-11" value="" style="edgeStyle=orthogonalEdgeStyle;rounded=0;orthogonalLoop=1;jettySize=auto;html=1;" edge="1" parent="1" source="gyq8WIJsPYIdBO1_Q_WW-12" target="gyq8WIJsPYIdBO1_Q_WW-14">
          <mxGeometry relative="1" as="geometry" />
        </mxCell>
        <mxCell id="gyq8WIJsPYIdBO1_Q_WW-12" value="กรอกค่าตัวแปร num 1" style="rounded=0;whiteSpace=wrap;html=1;shape=parallelogram;perimeter=parallelogramPerimeter;fixedSize=1;" vertex="1" parent="1">
          <mxGeometry x="-670" y="-610" width="160" height="40" as="geometry" />
        </mxCell>
        <mxCell id="gyq8WIJsPYIdBO1_Q_WW-32" value="" style="edgeStyle=orthogonalEdgeStyle;rounded=0;orthogonalLoop=1;jettySize=auto;html=1;" edge="1" parent="1" source="gyq8WIJsPYIdBO1_Q_WW-14" target="gyq8WIJsPYIdBO1_Q_WW-31">
          <mxGeometry relative="1" as="geometry" />
        </mxCell>
        <mxCell id="gyq8WIJsPYIdBO1_Q_WW-14" value="กรอกค่าตัวแปร AGe1" style="rounded=0;whiteSpace=wrap;html=1;shape=parallelogram;perimeter=parallelogramPerimeter;fixedSize=1;" vertex="1" parent="1">
          <mxGeometry x="-670" y="-540" width="160" height="40" as="geometry" />
        </mxCell>
        <mxCell id="gyq8WIJsPYIdBO1_Q_WW-15" value="" style="edgeStyle=orthogonalEdgeStyle;rounded=0;orthogonalLoop=1;jettySize=auto;html=1;" edge="1" parent="1" source="gyq8WIJsPYIdBO1_Q_WW-16">
          <mxGeometry relative="1" as="geometry">
            <mxPoint x="-297.5" y="-880" as="targetPoint" />
          </mxGeometry>
        </mxCell>
        <mxCell id="gyq8WIJsPYIdBO1_Q_WW-16" value="Start Print" style="shape=process;whiteSpace=wrap;html=1;backgroundOutline=1;" vertex="1" parent="1">
          <mxGeometry x="-357.5" y="-970" width="120" height="50" as="geometry" />
        </mxCell>
        <mxCell id="gyq8WIJsPYIdBO1_Q_WW-19" value="" style="edgeStyle=orthogonalEdgeStyle;rounded=0;orthogonalLoop=1;jettySize=auto;html=1;" edge="1" parent="1" target="gyq8WIJsPYIdBO1_Q_WW-23">
          <mxGeometry relative="1" as="geometry">
            <mxPoint x="-297.5" y="-630" as="sourcePoint" />
          </mxGeometry>
        </mxCell>
        <mxCell id="gyq8WIJsPYIdBO1_Q_WW-21" style="edgeStyle=orthogonalEdgeStyle;rounded=0;orthogonalLoop=1;jettySize=auto;html=1;entryX=0.5;entryY=0;entryDx=0;entryDy=0;" edge="1" parent="1" source="gyq8WIJsPYIdBO1_Q_WW-22" target="gyq8WIJsPYIdBO1_Q_WW-4">
          <mxGeometry relative="1" as="geometry" />
        </mxCell>
        <mxCell id="gyq8WIJsPYIdBO1_Q_WW-22" value="กำหนดตัวแปร name1" style="rounded=0;whiteSpace=wrap;html=1;" vertex="1" parent="1">
          <mxGeometry x="-670" y="-960" width="160" height="40" as="geometry" />
        </mxCell>
        <mxCell id="gyq8WIJsPYIdBO1_Q_WW-23" value="End Print" style="shape=process;whiteSpace=wrap;html=1;backgroundOutline=1;" vertex="1" parent="1">
          <mxGeometry x="-357.5" y="-590" width="120" height="50" as="geometry" />
        </mxCell>
        <mxCell id="gyq8WIJsPYIdBO1_Q_WW-26" value="&lt;font data-font-src=&quot;https://fonts.googleapis.com/css?family=Sarabun&quot; face=&quot;Sarabun&quot;&gt;End&lt;/font&gt;" style="ellipse;whiteSpace=wrap;html=1;" vertex="1" parent="1">
          <mxGeometry x="-655.0000000000001" y="-80" width="130" height="30" as="geometry" />
        </mxCell>
        <mxCell id="gyq8WIJsPYIdBO1_Q_WW-29" value="" style="edgeStyle=orthogonalEdgeStyle;rounded=0;orthogonalLoop=1;jettySize=auto;html=1;" edge="1" source="gyq8WIJsPYIdBO1_Q_WW-31" target="gyq8WIJsPYIdBO1_Q_WW-30" parent="1">
          <mxGeometry relative="1" as="geometry" />
        </mxCell>
        <mxCell id="gyq8WIJsPYIdBO1_Q_WW-45" value="" style="edgeStyle=orthogonalEdgeStyle;rounded=0;orthogonalLoop=1;jettySize=auto;html=1;" edge="1" parent="1" source="gyq8WIJsPYIdBO1_Q_WW-30" target="gyq8WIJsPYIdBO1_Q_WW-44">
          <mxGeometry relative="1" as="geometry" />
        </mxCell>
        <mxCell id="gyq8WIJsPYIdBO1_Q_WW-30" value="กรอกค่าตัวแปร AGe2" style="rounded=0;whiteSpace=wrap;html=1;shape=parallelogram;perimeter=parallelogramPerimeter;fixedSize=1;" vertex="1" parent="1">
          <mxGeometry x="-670" y="-400" width="160" height="40" as="geometry" />
        </mxCell>
        <mxCell id="gyq8WIJsPYIdBO1_Q_WW-31" value="กรอกค่าตัวแปร num 2" style="rounded=0;whiteSpace=wrap;html=1;shape=parallelogram;perimeter=parallelogramPerimeter;fixedSize=1;" vertex="1" parent="1">
          <mxGeometry x="-670" y="-470" width="160" height="40" as="geometry" />
        </mxCell>
        <mxCell id="gyq8WIJsPYIdBO1_Q_WW-40" value="" style="edgeStyle=orthogonalEdgeStyle;rounded=0;orthogonalLoop=1;jettySize=auto;html=1;" edge="1" parent="1" source="gyq8WIJsPYIdBO1_Q_WW-35" target="gyq8WIJsPYIdBO1_Q_WW-38">
          <mxGeometry relative="1" as="geometry" />
        </mxCell>
        <mxCell id="gyq8WIJsPYIdBO1_Q_WW-35" value="ปริ้นค่า name1" style="shape=parallelogram;perimeter=parallelogramPerimeter;whiteSpace=wrap;html=1;fixedSize=1;" vertex="1" parent="1">
          <mxGeometry x="-380" y="-880" width="165" height="40" as="geometry" />
        </mxCell>
        <mxCell id="gyq8WIJsPYIdBO1_Q_WW-43" value="" style="edgeStyle=orthogonalEdgeStyle;rounded=0;orthogonalLoop=1;jettySize=auto;html=1;" edge="1" parent="1" source="gyq8WIJsPYIdBO1_Q_WW-36" target="gyq8WIJsPYIdBO1_Q_WW-42">
          <mxGeometry relative="1" as="geometry" />
        </mxCell>
        <mxCell id="gyq8WIJsPYIdBO1_Q_WW-36" value="ปริ้นค่า name2" style="shape=parallelogram;perimeter=parallelogramPerimeter;whiteSpace=wrap;html=1;fixedSize=1;" vertex="1" parent="1">
          <mxGeometry x="-380" y="-740" width="165" height="40" as="geometry" />
        </mxCell>
        <mxCell id="gyq8WIJsPYIdBO1_Q_WW-41" value="" style="edgeStyle=orthogonalEdgeStyle;rounded=0;orthogonalLoop=1;jettySize=auto;html=1;" edge="1" parent="1" source="gyq8WIJsPYIdBO1_Q_WW-38" target="gyq8WIJsPYIdBO1_Q_WW-36">
          <mxGeometry relative="1" as="geometry" />
        </mxCell>
        <mxCell id="gyq8WIJsPYIdBO1_Q_WW-38" value="ปริ้นค่า age1" style="shape=parallelogram;perimeter=parallelogramPerimeter;whiteSpace=wrap;html=1;fixedSize=1;" vertex="1" parent="1">
          <mxGeometry x="-380" y="-810" width="165" height="40" as="geometry" />
        </mxCell>
        <mxCell id="gyq8WIJsPYIdBO1_Q_WW-42" value="ปริ้นค่า age2" style="shape=parallelogram;perimeter=parallelogramPerimeter;whiteSpace=wrap;html=1;fixedSize=1;" vertex="1" parent="1">
          <mxGeometry x="-380" y="-670" width="165" height="40" as="geometry" />
        </mxCell>
        <mxCell id="gyq8WIJsPYIdBO1_Q_WW-48" value="" style="edgeStyle=orthogonalEdgeStyle;rounded=0;orthogonalLoop=1;jettySize=auto;html=1;" edge="1" parent="1" source="gyq8WIJsPYIdBO1_Q_WW-44" target="gyq8WIJsPYIdBO1_Q_WW-47">
          <mxGeometry relative="1" as="geometry" />
        </mxCell>
        <mxCell id="gyq8WIJsPYIdBO1_Q_WW-44" value="Print" style="shape=process;whiteSpace=wrap;html=1;backgroundOutline=1;" vertex="1" parent="1">
          <mxGeometry x="-650" y="-317" width="120" height="50" as="geometry" />
        </mxCell>
        <mxCell id="gyq8WIJsPYIdBO1_Q_WW-50" value="" style="edgeStyle=orthogonalEdgeStyle;rounded=0;orthogonalLoop=1;jettySize=auto;html=1;" edge="1" parent="1" source="gyq8WIJsPYIdBO1_Q_WW-47" target="gyq8WIJsPYIdBO1_Q_WW-49">
          <mxGeometry relative="1" as="geometry" />
        </mxCell>
        <mxCell id="gyq8WIJsPYIdBO1_Q_WW-47" value="สลับ Age1 กับ Age2" style="rounded=0;whiteSpace=wrap;html=1;" vertex="1" parent="1">
          <mxGeometry x="-670" y="-230" width="160" height="40" as="geometry" />
        </mxCell>
        <mxCell id="gyq8WIJsPYIdBO1_Q_WW-51" value="" style="edgeStyle=orthogonalEdgeStyle;rounded=0;orthogonalLoop=1;jettySize=auto;html=1;" edge="1" parent="1" source="gyq8WIJsPYIdBO1_Q_WW-49" target="gyq8WIJsPYIdBO1_Q_WW-26">
          <mxGeometry relative="1" as="geometry" />
        </mxCell>
        <mxCell id="gyq8WIJsPYIdBO1_Q_WW-49" value="Print" style="shape=process;whiteSpace=wrap;html=1;backgroundOutline=1;" vertex="1" parent="1">
          <mxGeometry x="-650" y="-160" width="120" height="50" as="geometry" />
        </mxCell>
      </root>
    </mxGraphModel>
  </diagram>
</mxfile>
